<span class="anticon">
<svg width="14" height="17" viewBox="0 0 14 17" fill="none" xmlns="http://www.w3.org/2000/svg">
<path fill-rule="evenodd" clip-rule="evenodd" d="M10.0614 1.69228L10.7435 1.77744C12.3181 1.97401 13.5 3.31545 13.5 4.90597V13.7246C13.5 15.2689 12.3524 16.5714 10.8236 16.7622C8.28435 17.0793 5.71565 17.0793 3.17638 16.7622C1.64757 16.5714 0.5 15.2689 0.5 13.7246V4.90597C0.5 3.31545 1.68191 1.97401 3.25646 1.77744L3.93863 1.69228C4.20884 0.716338 5.10161 0 6.16129 0H7.83871C8.89839 0 9.79116 0.716338 10.0614 1.69228ZM3.85484 2.97356L3.41194 3.02885C2.46721 3.14679 1.75806 3.95166 1.75806 4.90597V13.7246C1.75806 14.6327 2.43287 15.3986 3.33187 15.5108C5.76788 15.815 8.23212 15.815 10.6681 15.5108C11.5671 15.3986 12.2419 14.6327 12.2419 13.7246V4.90597C12.2419 3.95166 11.5328 3.14679 10.5881 3.02885L10.1452 2.97356V3.99341C10.1452 4.34165 9.86353 4.62395 9.51613 4.62395H4.48387C4.13647 4.62395 3.85484 4.34165 3.85484 3.99341V2.97356ZM5.1129 2.31197C5.1129 1.73158 5.58228 1.26108 6.16129 1.26108H7.83871C8.41772 1.26108 8.8871 1.73158 8.8871 2.31197V3.36287H5.1129V2.31197Z" fill="white"/>
<path d="M10.1452 7.98682C10.1452 7.63858 9.86353 7.35628 9.51613 7.35628H4.48387C4.13647 7.35628 3.85484 7.63858 3.85484 7.98682C3.85484 8.33506 4.13647 8.61736 4.48387 8.61736H9.51613C9.86353 8.61736 10.1452 8.33506 10.1452 7.98682Z" fill="white"/>
<path d="M9.30645 10.509C9.30645 10.1607 9.02482 9.87843 8.67742 9.87843H4.48387C4.13647 9.87843 3.85484 10.1607 3.85484 10.509C3.85484 10.8572 4.13647 11.1395 4.48387 11.1395H8.67742C9.02482 11.1395 9.30645 10.8572 9.30645 10.509Z" fill="white"/>
</svg>
