<svg width="16" height="17" viewBox="0 0 16 17" fill="none" xmlns="http://www.w3.org/2000/svg">
<path d="M15.7887 10.6608L14.5532 9.59827C14.6116 9.23775 14.6418 8.86964 14.6418 8.50154C14.6418 8.13343 14.6116 7.76533 14.5532 7.40481L15.7887 6.34224C15.8819 6.26199 15.9486 6.1551 15.98 6.0358C16.0113 5.91649 16.0058 5.79041 15.9642 5.67433L15.9472 5.625C15.607 4.66873 15.0977 3.78226 14.4438 3.00841L14.4098 2.96857C14.3305 2.87474 14.2247 2.80729 14.1066 2.77512C13.9884 2.74294 13.8632 2.74754 13.7477 2.78831L12.2141 3.33667C11.6482 2.8699 11.0163 2.50179 10.3334 2.24374L10.0373 0.630903C10.0149 0.509546 9.95639 0.397901 9.86946 0.310799C9.78253 0.223697 9.67131 0.165262 9.55058 0.143258L9.49965 0.13377C8.51686 -0.0445901 7.48314 -0.0445901 6.50035 0.13377L6.44942 0.143258C6.32869 0.165262 6.21747 0.223697 6.13054 0.310799C6.04361 0.397901 5.98509 0.509546 5.96275 0.630903L5.6647 2.25133C4.98729 2.50944 4.35646 2.87735 3.79722 3.34047L2.2523 2.78831C2.13679 2.74721 2.01159 2.74245 1.89332 2.77465C1.77506 2.80684 1.66933 2.87448 1.59019 2.96857L1.55624 3.00841C0.903085 3.78281 0.393828 4.66913 0.0528215 5.625L0.0358444 5.67433C-0.0490412 5.91152 0.0207537 6.17716 0.211275 6.34224L1.46192 7.4162C1.40345 7.77292 1.37515 8.13723 1.37515 8.49964C1.37515 8.86395 1.40345 9.22826 1.46192 9.58309L0.211275 10.657C0.118081 10.7373 0.0513812 10.8442 0.0200443 10.9635C-0.0112925 11.0828 -0.00578166 11.2089 0.0358444 11.325L0.0528215 11.3743C0.39425 12.3306 0.899791 13.2129 1.55624 13.9909L1.59019 14.0307C1.66952 14.1245 1.77525 14.192 1.89345 14.2242C2.01164 14.2563 2.13676 14.2517 2.2523 14.211L3.79722 13.6588C4.35935 14.1237 4.9875 14.4918 5.6647 14.748L5.96275 16.3684C5.98509 16.4897 6.04361 16.6014 6.13054 16.6885C6.21747 16.7756 6.32869 16.834 6.44942 16.856L6.50035 16.8655C7.49217 17.0448 8.50783 17.0448 9.49965 16.8655L9.55058 16.856C9.67131 16.834 9.78253 16.7756 9.86946 16.6885C9.95639 16.6014 10.0149 16.4897 10.0373 16.3684L10.3334 14.7555C11.016 14.4982 11.6515 14.1289 12.2141 13.6626L13.7477 14.211C13.8632 14.2521 13.9884 14.2568 14.1067 14.2246C14.2249 14.1924 14.3307 14.1248 14.4098 14.0307L14.4438 13.9909C15.1002 13.211 15.6058 12.3306 15.9472 11.3743L15.9642 11.325C16.049 11.0916 15.9792 10.8259 15.7887 10.6608ZM13.2139 7.62871C13.261 7.91523 13.2855 8.20933 13.2855 8.50344C13.2855 8.79754 13.261 9.09165 13.2139 9.37816L13.0894 10.139L14.4985 11.3515C14.2848 11.8465 14.0152 12.3151 13.6949 12.748L11.9444 12.1238L11.352 12.6133C10.9012 12.9852 10.3994 13.2774 9.85616 13.4824L9.13747 13.7537L8.79981 15.5942C8.26705 15.6549 7.72918 15.6549 7.19642 15.5942L6.85876 13.7499L6.14572 13.4748C5.60811 13.2698 5.10823 12.9776 4.66117 12.6076L4.06885 12.1162L2.30701 12.7461C1.98633 12.3116 1.71847 11.843 1.50342 11.3496L2.92761 10.1258L2.805 9.36678C2.75973 9.08406 2.73521 8.79185 2.73521 8.50344C2.73521 8.21313 2.75784 7.92282 2.805 7.64009L2.92761 6.88111L1.50342 5.65726C1.71658 5.16202 1.98633 4.69525 2.30701 4.26073L4.06885 4.89069L4.66117 4.39925C5.10823 4.02924 5.60811 3.73703 6.14572 3.53211L6.86065 3.26077L7.1983 1.41645C7.72837 1.35573 8.26975 1.35573 8.8017 1.41645L9.13935 3.25698L9.85805 3.52831C10.3994 3.73324 10.9031 4.02545 11.3539 4.39735L11.9462 4.88689L13.6968 4.26263C14.0174 4.69714 14.2853 5.16582 14.5004 5.65915L13.0912 6.87163L13.2139 7.62871ZM8.00189 4.97417C6.16836 4.97417 4.68192 6.46937 4.68192 8.31369C4.68192 10.158 6.16836 11.6532 8.00189 11.6532C9.83542 11.6532 11.3219 10.158 11.3219 8.31369C11.3219 6.46937 9.83542 4.97417 8.00189 4.97417ZM9.49587 9.81647C9.29992 10.0141 9.06705 10.1709 8.81066 10.2777C8.55426 10.3845 8.2794 10.4393 8.00189 10.4388C7.43787 10.4388 6.90781 10.2168 6.5079 9.81647C6.31139 9.61937 6.15556 9.38513 6.04937 9.12722C5.94319 8.86932 5.88875 8.59284 5.88918 8.31369C5.88918 7.74635 6.10988 7.21317 6.5079 6.81091C6.90781 6.40865 7.43787 6.18854 8.00189 6.18854C8.5659 6.18854 9.09597 6.40865 9.49587 6.81091C9.69239 7.00801 9.84822 7.24225 9.9544 7.50016C10.0606 7.75806 10.115 8.03454 10.1146 8.31369C10.1146 8.88103 9.89389 9.41421 9.49587 9.81647Z" fill="white"/>
</svg>
