<svg width="17" height="14" viewBox="0 0 17 16" fill="none" xmlns="http://www.w3.org/2000/svg">
<path d="M12.4766 15.908C12.1023 15.8161 12.0088 15.5402 12.0088 15.1724C12.0088 12.5057 12.0088 9.83908 12.0088 7.17241C12.0088 6.71264 12.1959 6.43678 12.7573 6.43678C13.693 6.43678 14.6287 6.43678 15.6579 6.43678C16.0322 6.43678 16.3129 6.52874 16.5 6.89655C16.5 9.74713 16.5 12.5977 16.5 15.4483C16.4064 15.7241 16.2193 15.8161 16.0322 15.908C14.8158 15.908 13.693 15.908 12.4766 15.908ZM15.1901 14.6207C15.1901 12.2299 15.1901 9.93103 15.1901 7.54023C14.5351 7.54023 13.8801 7.54023 13.2251 7.54023C13.2251 9.93103 13.2251 12.2299 13.2251 14.6207C13.8801 14.6207 14.5351 14.6207 15.1901 14.6207Z" fill="#ffffff"/>
<path d="M6.67544 15.908C6.30117 15.8161 6.2076 15.5402 6.2076 15.1724C6.2076 13.2414 6.2076 11.3103 6.2076 9.47126C6.2076 9.10345 6.39474 8.91954 6.67544 8.82759C6.76901 8.82759 6.76901 8.82759 6.86257 8.82759C7.89181 8.82759 8.92105 8.82759 9.95029 8.82759C10.3246 8.82759 10.6053 9.10345 10.6053 9.47126C10.6053 11.4023 10.6053 13.4253 10.6053 15.3563C10.6053 15.7241 10.4181 15.908 10.1374 16C9.01462 15.908 7.89181 15.908 6.67544 15.908ZM9.48246 9.93103C8.82749 9.93103 8.17251 9.93103 7.51754 9.93103C7.51754 11.4943 7.51754 13.0575 7.51754 14.6207C8.17251 14.6207 8.82749 14.6207 9.48246 14.6207C9.48246 13.0575 9.48246 11.4943 9.48246 9.93103Z" fill="#ffffff"/>
<path d="M0.967836 15.908C0.593567 15.8161 0.5 15.5402 0.5 15.1724C0.5 14.069 0.5 12.8736 0.5 11.7701C0.5 11.3103 0.780702 11.0345 1.15497 11.0345C2.18421 11.0345 3.21345 11.0345 4.24269 11.0345C4.71053 11.0345 4.99123 11.3103 4.99123 11.7701C4.99123 12.8736 4.99123 14.069 4.99123 15.1724C4.99123 15.5402 4.89766 15.8161 4.52339 15.908C3.30702 15.908 2.09064 15.908 0.967836 15.908ZM1.71637 14.6207C2.37135 14.6207 3.02632 14.6207 3.68129 14.6207C3.68129 13.7931 3.68129 13.0575 3.68129 12.2299C3.02632 12.2299 2.37135 12.2299 1.71637 12.2299C1.71637 13.0575 1.71637 13.8851 1.71637 14.6207Z" fill="#ffffff"/>
<path d="M13.5994 2.2069C13.5058 2.29885 13.5058 2.29885 13.4123 2.3908C12.1959 3.67816 10.886 4.87356 9.66959 6.16092C9.29532 6.52874 9.01462 6.52874 8.64035 6.16092C7.89181 5.42529 7.14328 4.68965 6.39474 3.95402L6.30117 4.04598C5.17836 5.05747 4.24269 6.06896 3.21345 7.08046C3.02632 7.26437 2.93275 7.35632 2.65205 7.26437C2.37135 7.26437 2.18421 7.08046 2.09064 6.89655C1.99708 6.71264 1.99708 6.43678 2.18421 6.25287L2.27778 6.16092C3.49415 5.05747 4.71053 3.86207 5.83333 2.75862C6.2076 2.3908 6.4883 2.3908 6.86257 2.75862C7.51754 3.4023 8.26608 4.13793 8.92105 4.78161L9.01462 4.87356C10.231 3.67816 11.4474 2.48276 12.6637 1.28736H12.5702C12.1023 1.28736 11.6345 1.28736 11.1667 1.28736C10.7924 1.28736 10.5117 1.01149 10.5117 0.643678C10.5117 0.275862 10.7924 0 11.1667 0C12.1959 0 13.1316 0 14.1608 0C14.5351 0 14.8158 0.275862 14.8158 0.643678C14.8158 1.65517 14.8158 2.66667 14.8158 3.58621C14.8158 3.95402 14.6287 4.13793 14.2544 4.22989C13.9737 4.22989 13.693 4.13793 13.5994 3.86207C13.5994 3.77011 13.5994 3.67816 13.5994 3.58621C13.5994 3.12644 13.5994 2.75862 13.5994 2.29885C13.5994 2.3908 13.5994 2.29885 13.5994 2.2069Z" fill="#ffffff"/>
</svg>
