<?xml version="1.0" encoding="utf-8"?>
<svg width="45" height="46" viewBox="0 0 45 46" fill="none" xmlns="http://www.w3.org/2000/svg">
  <circle opacity="0.2" cx="22.5" cy="23" r="22.5" fill="#17CCB6"/>
  <path d="M 9.43 35.483 C 9.163 35.349 9.03 35.083 9.097 34.749 C 9.163 30.949 12.03 27.549 15.83 26.949 C 16.763 26.816 17.697 26.883 18.63 26.816 C 18.963 26.816 19.297 26.616 19.63 26.483 C 19.763 26.416 19.697 25.483 19.563 25.416 C 19.497 25.416 19.497 25.349 19.43 25.349 C 18.43 24.749 17.697 23.883 17.23 22.749 C 17.163 22.549 17.03 22.549 16.897 22.549 C 16.23 22.549 15.563 22.483 14.963 22.149 C 13.03 21.083 12.83 18.349 14.63 17.016 C 14.763 16.883 14.83 16.749 14.83 16.616 C 14.897 13.349 16.43 11.016 19.363 9.616 C 23.697 7.616 28.963 10.416 29.83 15.149 C 29.897 15.683 29.897 16.216 29.963 16.749 C 29.963 16.883 30.03 16.949 30.097 17.016 C 31.097 17.816 31.563 18.883 31.297 20.149 C 31.03 21.416 30.163 22.216 28.897 22.483 C 28.563 22.549 28.163 22.549 27.83 22.549 C 27.63 22.549 27.563 22.616 27.497 22.749 C 27.03 23.883 26.297 24.749 25.23 25.349 C 25.097 25.416 25.03 25.549 25.03 25.683 L 25.03 25.749 C 25.03 26.016 25.03 26.216 25.097 26.483 C 25.43 26.616 25.763 26.816 26.163 26.816 C 27.23 26.816 28.297 26.749 29.363 27.016 C 32.697 27.816 35.23 30.683 35.563 34.149 C 35.563 34.216 35.563 34.283 35.63 34.349 C 35.63 34.749 35.63 35.083 35.63 35.483 C 31.963 35.483 28.23 35.483 24.563 35.483 C 24.23 35.216 24.097 35.016 24.297 34.683 C 24.43 34.483 24.63 34.416 24.897 34.416 C 28.03 34.416 31.163 34.416 34.297 34.416 C 34.43 34.416 34.497 34.416 34.63 34.416 C 34.363 30.483 30.963 27.816 27.897 27.816 C 27.83 28.016 27.83 28.149 27.697 28.283 C 26.897 29.416 26.163 30.616 25.363 31.749 C 25.03 32.216 24.763 32.216 24.43 31.883 C 23.83 31.283 23.23 30.683 22.63 30.016 C 22.563 29.949 22.563 29.816 22.497 29.749 C 21.697 30.549 21.03 31.216 20.363 31.883 C 19.963 32.283 19.697 32.216 19.363 31.816 C 18.63 30.749 17.897 29.683 17.163 28.616 C 17.03 28.416 16.963 28.149 16.83 27.949 C 13.163 28.016 10.23 31.283 10.163 34.549 C 10.297 34.549 10.363 34.549 10.497 34.549 C 13.63 34.549 16.697 34.549 19.83 34.549 C 19.897 34.549 20.03 34.549 20.097 34.549 C 20.363 34.549 20.497 34.683 20.563 34.949 C 20.63 35.149 20.563 35.349 20.363 35.483 C 20.297 35.549 20.297 35.549 20.23 35.616 C 16.63 35.483 13.03 35.483 9.43 35.483 Z M 17.83 18.016 C 17.83 18.883 17.763 19.749 17.83 20.683 C 17.897 22.616 18.83 24.016 20.63 24.749 C 22.363 25.483 23.963 25.149 25.43 23.949 C 25.697 23.683 25.963 23.416 26.23 23.083 C 26.23 23.083 26.23 23.016 26.163 23.016 C 25.563 23.016 25.03 23.016 24.43 23.016 C 24.297 23.016 24.163 23.083 24.097 23.216 C 23.83 23.749 23.363 24.083 22.697 24.083 C 22.43 24.083 22.163 24.083 21.963 24.083 C 21.163 24.083 20.497 23.349 20.43 22.549 C 20.43 21.683 21.097 21.016 21.963 20.949 C 22.163 20.949 22.363 20.949 22.63 20.949 C 23.297 20.949 23.83 21.216 24.163 21.816 C 24.23 21.883 24.297 21.949 24.363 21.949 C 25.097 21.949 25.763 21.949 26.497 21.949 C 26.63 21.949 26.697 21.883 26.697 21.749 C 26.763 21.549 26.83 21.283 26.83 21.083 C 26.83 20.149 26.83 19.149 26.897 18.216 C 26.897 18.016 26.763 18.016 26.63 18.016 C 25.63 17.883 24.63 17.483 23.83 16.949 C 23.697 16.883 23.563 16.883 23.43 16.949 C 22.43 17.616 21.297 18.016 20.03 18.083 C 19.363 18.083 18.63 18.016 17.83 18.016 Z M 26.897 17.016 C 26.897 16.616 26.897 16.216 26.83 15.883 C 26.497 13.549 24.297 11.883 22.03 12.083 C 19.63 12.283 17.83 14.283 17.897 16.683 C 17.897 16.816 17.963 16.883 18.097 16.949 C 18.963 17.149 19.897 17.149 20.763 17.016 C 21.697 16.816 22.563 16.483 23.297 15.883 C 23.63 15.616 23.83 15.616 24.163 15.883 C 24.23 15.949 24.297 15.949 24.363 16.016 C 25.03 16.549 25.897 16.883 26.897 17.016 Z M 28.897 16.416 C 28.963 14.616 27.963 12.149 25.697 10.883 C 23.297 9.549 20.83 9.616 18.563 11.216 C 16.83 12.483 15.963 14.216 15.83 16.416 C 16.163 16.416 16.497 16.349 16.763 16.349 C 16.897 13.083 19.83 10.949 22.497 11.016 C 25.297 11.083 27.83 13.349 27.963 16.349 C 28.23 16.416 28.563 16.416 28.897 16.416 Z M 16.763 17.483 C 16.03 17.349 15.163 17.683 14.697 18.349 C 14.23 19.083 14.297 20.016 14.763 20.683 C 15.23 21.283 16.097 21.616 16.697 21.483 C 16.763 20.083 16.763 18.749 16.763 17.483 Z M 27.963 21.483 C 28.897 21.549 29.63 21.216 30.03 20.483 C 30.43 19.749 30.43 18.949 29.897 18.283 C 29.43 17.616 28.763 17.416 27.963 17.483 C 27.963 18.816 27.963 20.149 27.963 21.483 Z M 24.763 30.749 C 25.363 29.883 25.897 29.083 26.497 28.216 C 25.897 27.949 25.363 27.683 24.83 27.483 C 24.763 27.483 24.697 27.483 24.63 27.549 C 24.297 27.883 23.963 28.216 23.63 28.549 C 23.43 28.749 23.23 28.883 23.097 29.016 C 23.697 29.683 24.23 30.216 24.763 30.749 Z M 21.563 29.149 C 21.03 28.616 20.43 28.016 19.897 27.483 C 19.363 27.749 18.763 28.016 18.163 28.216 C 18.763 29.083 19.297 29.949 19.897 30.749 C 20.497 30.216 21.03 29.683 21.563 29.149 Z M 24.03 25.883 C 22.897 26.216 21.83 26.216 20.697 25.883 C 20.697 26.149 20.697 26.349 20.697 26.549 C 20.697 26.616 20.697 26.749 20.763 26.816 C 21.297 27.349 21.83 27.883 22.363 28.416 C 22.897 27.883 23.43 27.349 23.963 26.816 C 23.963 26.816 24.03 26.749 24.03 26.683 C 24.03 26.416 24.03 26.149 24.03 25.883 Z M 22.363 23.016 C 22.497 23.016 22.63 23.016 22.763 23.016 C 23.03 23.016 23.23 22.749 23.23 22.483 C 23.23 22.216 23.03 21.949 22.763 21.949 C 22.497 21.949 22.23 21.949 21.963 21.949 C 21.697 21.949 21.497 22.216 21.497 22.483 C 21.497 22.749 21.697 22.949 21.963 23.016 C 22.097 23.016 22.23 23.016 22.363 23.016 Z" fill="#17CCB6"/>
  <path d="M 22.284 35.698 C 22.217 35.698 22.217 35.631 22.15 35.631 C 21.95 35.498 21.884 35.298 21.95 35.031 C 22.017 34.765 22.217 34.631 22.484 34.698 C 22.75 34.698 22.884 34.831 22.95 35.031 C 23.017 35.298 22.95 35.498 22.75 35.631 C 22.684 35.631 22.684 35.698 22.617 35.698 C 22.484 35.698 22.35 35.698 22.284 35.698 Z" fill="#17CCB6"/>
</svg>