<?xml version="1.0" encoding="utf-8"?>
<svg width="45" height="46" viewBox="0 0 45 46" fill="none" xmlns="http://www.w3.org/2000/svg">
  <circle opacity="0.2" cx="22.5" cy="23" r="22.5" fill="#3AA966"/>
  <path d="M 8.995 23.187 C 8.995 21.12 8.995 18.987 8.995 16.92 C 8.995 16.453 9.128 16.187 9.595 15.987 C 13.861 13.853 18.061 11.787 22.328 9.653 C 22.661 9.453 22.995 9.453 23.328 9.653 C 27.528 11.787 31.795 13.92 36.061 15.987 C 36.461 16.187 36.661 16.453 36.661 16.92 C 36.661 21.12 36.661 25.32 36.661 29.52 C 36.661 29.987 36.461 30.253 36.061 30.52 C 31.861 32.653 27.595 34.72 23.395 36.853 C 23.061 37.053 22.728 37.053 22.395 36.853 C 18.128 34.72 13.861 32.587 9.595 30.453 C 9.261 30.253 9.061 30.053 9.061 29.653 C 8.995 27.453 8.995 25.32 8.995 23.187 Z M 10.261 17.653 C 10.261 17.72 10.261 17.787 10.261 17.787 C 10.261 21.587 10.261 25.387 10.261 29.187 C 10.261 29.387 10.328 29.453 10.528 29.52 C 14.328 31.387 18.128 33.32 21.928 35.187 C 21.995 35.253 22.061 35.253 22.195 35.32 C 22.195 35.187 22.195 35.12 22.195 35.053 C 22.195 31.32 22.195 27.587 22.195 23.853 C 22.195 23.653 22.128 23.587 21.995 23.453 C 18.195 21.587 14.395 19.653 10.595 17.787 C 10.461 17.72 10.395 17.72 10.261 17.653 Z M 23.395 35.32 C 23.528 35.253 23.595 35.253 23.728 35.187 C 27.528 33.32 31.261 31.387 35.061 29.52 C 35.261 29.453 35.328 29.32 35.328 29.12 C 35.328 25.387 35.328 21.72 35.328 17.987 C 35.328 17.92 35.328 17.787 35.328 17.653 C 35.261 17.72 35.128 17.72 35.061 17.787 C 34.261 18.187 33.528 18.587 32.728 18.92 C 32.528 18.987 32.461 19.12 32.461 19.32 C 32.461 20.853 32.461 22.453 32.461 23.987 C 32.461 24.52 32.461 24.987 32.461 25.52 C 32.461 25.787 32.328 25.987 32.128 26.12 C 31.861 26.253 31.661 26.187 31.461 26.053 C 31.261 25.92 31.128 25.787 30.928 25.72 C 30.528 25.453 30.195 25.187 29.795 24.92 C 29.661 25.12 29.528 25.253 29.461 25.453 C 28.795 26.453 28.061 27.453 27.395 28.453 C 27.128 28.787 26.795 28.92 26.461 28.72 C 26.261 28.587 26.195 28.32 26.195 28.053 C 26.195 26.253 26.195 24.453 26.195 22.653 C 26.195 22.52 26.195 22.453 26.195 22.32 C 25.328 22.72 24.528 23.187 23.661 23.587 C 23.461 23.72 23.395 23.853 23.395 24.053 C 23.395 27.72 23.395 31.453 23.395 35.12 C 23.395 35.053 23.395 35.187 23.395 35.32 Z M 15.261 14.453 C 15.328 14.52 15.395 14.52 15.395 14.52 C 19.195 16.453 22.995 18.32 26.795 20.253 C 26.861 20.32 27.061 20.32 27.195 20.253 C 28.261 19.72 29.328 19.187 30.395 18.653 C 30.461 18.653 30.528 18.587 30.595 18.52 C 30.528 18.453 30.461 18.453 30.461 18.453 C 26.661 16.52 22.861 14.653 19.061 12.72 C 18.995 12.653 18.795 12.653 18.661 12.72 C 17.595 13.253 16.528 13.787 15.461 14.32 C 15.461 14.387 15.395 14.453 15.261 14.453 Z M 11.061 16.587 C 11.128 16.653 11.195 16.653 11.195 16.653 C 14.995 18.587 18.795 20.453 22.661 22.387 C 22.728 22.453 22.928 22.387 22.995 22.387 C 23.795 21.987 24.595 21.587 25.395 21.187 C 25.461 21.187 25.528 21.12 25.595 21.053 C 25.461 20.987 25.395 20.92 25.261 20.853 C 24.395 20.387 23.528 19.987 22.661 19.52 C 19.795 18.12 16.928 16.653 14.061 15.253 C 13.995 15.187 13.795 15.187 13.728 15.187 C 12.861 15.653 11.995 16.12 11.061 16.587 Z M 34.528 16.587 C 34.328 16.52 34.261 16.453 34.128 16.387 C 30.795 14.72 27.395 12.987 23.995 11.32 C 23.595 11.12 23.195 10.787 22.861 10.787 C 22.461 10.787 22.061 11.12 21.661 11.32 C 21.195 11.52 20.795 11.787 20.328 11.987 C 20.395 12.053 20.395 12.053 20.395 12.053 C 24.261 13.987 28.061 15.92 31.928 17.787 C 31.995 17.853 32.128 17.853 32.195 17.787 C 32.928 17.453 33.728 17.053 34.528 16.587 Z M 27.528 25.987 C 27.661 25.853 27.661 25.787 27.728 25.72 C 28.195 25.053 28.661 24.387 29.128 23.72 C 29.461 23.253 29.795 23.187 30.261 23.52 C 30.595 23.787 30.928 23.987 31.328 24.253 C 31.328 22.72 31.328 21.187 31.328 19.653 L 31.261 19.653 C 30.061 20.253 28.861 20.853 27.661 21.453 C 27.595 21.453 27.528 21.587 27.528 21.653 C 27.528 23.12 27.528 24.52 27.528 25.987 Z" fill="#3AA966"/>
</svg>