<?xml version="1.0" encoding="utf-8"?>
<svg width="45" height="46" viewBox="0 0 45 46" fill="none" xmlns="http://www.w3.org/2000/svg">
  <circle cx="22.5" cy="23" r="22.5" fill="#1890FF" fill-opacity="0.2"/>
  <path d="M 11.017 15.22 C 10.799 14.784 10.581 14.421 10.436 13.986 C 9.638 12.317 10.363 10.575 12.105 9.994 C 12.323 9.921 12.613 9.704 12.831 9.558 C 13.412 9.123 14.065 8.833 14.718 8.687 C 15.662 8.47 16.605 8.615 17.476 8.978 C 17.912 9.196 18.42 9.413 18.855 9.631 C 20.307 10.357 21.105 11.881 20.815 13.55 C 20.815 13.623 20.815 13.623 20.815 13.623 C 21.468 13.623 22.121 13.623 22.775 13.623 C 22.775 13.187 22.702 12.679 22.775 12.244 C 22.92 11.3 23.501 10.647 24.371 10.212 C 24.734 10.067 25.097 9.849 25.388 9.631 C 26.259 8.978 27.202 8.687 28.218 8.687 C 28.581 8.687 29.017 8.687 29.38 8.833 C 30.251 9.123 31.049 9.486 31.847 9.921 C 33.299 10.792 33.88 12.679 33.226 14.204 C 33.081 14.567 32.936 14.929 32.718 15.365 C 33.154 15.438 33.589 15.583 33.807 16.018 C 33.952 16.308 34.025 16.599 34.025 16.962 C 33.952 17.615 33.444 18.05 32.573 18.123 C 32.501 18.341 32.428 18.558 32.355 18.776 C 31.992 19.72 31.412 20.446 30.613 20.954 C 30.468 21.026 30.396 21.099 30.396 21.317 C 30.396 21.607 30.323 22.042 30.468 22.26 C 30.613 22.478 30.976 22.55 31.267 22.696 C 32.283 23.131 33.226 23.494 34.242 23.929 C 35.331 24.365 35.839 25.091 35.839 26.252 C 35.839 28.139 35.839 29.954 35.839 31.841 C 35.839 32.349 35.694 32.494 35.186 32.494 C 34.242 32.494 33.226 32.494 32.21 32.494 C 32.21 32.567 32.21 32.712 32.21 32.784 C 32.21 33.8 32.21 34.889 32.21 35.905 C 32.21 36.413 32.065 36.558 31.63 36.558 C 25.17 36.558 18.71 36.558 12.178 36.558 C 11.742 36.558 11.597 36.413 11.597 35.978 C 11.597 34.817 11.597 33.728 11.597 32.567 C 11.452 32.567 11.379 32.567 11.307 32.567 C 10.436 32.567 9.492 32.567 8.621 32.567 C 8.186 32.567 8.041 32.421 8.041 31.986 C 8.041 30.026 8.041 28.067 8.041 26.107 C 8.041 25.091 8.549 24.438 9.42 24.002 C 10.654 23.494 11.815 22.986 13.049 22.478 C 13.121 22.405 13.267 22.405 13.339 22.333 C 13.339 21.97 13.339 21.607 13.339 21.244 C 13.339 21.171 13.267 21.099 13.194 21.026 C 12.105 20.373 11.452 19.357 11.162 18.123 C 10.218 17.978 9.71 17.542 9.71 16.817 C 9.71 15.946 10.146 15.438 11.017 15.22 Z M 34.896 31.405 C 34.896 29.591 34.896 27.849 34.896 26.107 C 34.896 25.308 34.605 24.946 33.88 24.583 C 32.573 24.002 31.267 23.494 29.96 22.913 C 29.597 22.768 29.525 22.696 29.525 22.26 C 29.525 21.825 29.525 21.317 29.525 20.881 C 29.525 20.591 29.67 20.373 29.888 20.228 C 30.251 20.01 30.613 19.72 30.904 19.357 C 31.339 18.849 31.557 18.268 31.702 17.615 C 31.775 17.179 31.92 17.034 32.355 17.034 C 32.428 17.034 32.573 17.034 32.646 17.034 C 32.936 17.034 33.081 16.817 33.081 16.599 C 33.081 16.381 32.863 16.163 32.646 16.163 C 32.501 16.163 32.355 16.163 32.21 16.163 C 31.92 16.163 31.702 16.018 31.702 15.655 C 31.702 15.365 31.702 15.075 31.847 14.784 C 31.992 14.494 32.138 14.131 32.283 13.768 C 32.791 12.462 32.21 11.01 30.976 10.357 C 30.468 10.139 29.96 9.921 29.452 9.704 C 28.871 9.486 28.291 9.413 27.71 9.486 C 26.984 9.558 26.331 9.849 25.751 10.284 C 25.388 10.575 25.025 10.792 24.662 10.937 C 24.009 11.155 23.646 11.736 23.501 12.389 C 23.428 12.897 23.573 13.405 23.863 13.841 C 24.009 14.058 24.299 14.131 24.517 14.276 C 24.662 14.349 24.88 14.421 25.097 14.567 C 25.968 15.002 26.621 15.728 26.912 16.671 C 27.202 17.542 27.13 18.486 26.767 19.284 C 26.621 19.575 26.476 19.938 26.331 20.228 C 26.476 20.228 26.621 20.228 26.767 20.228 C 27.492 20.228 28.073 20.808 28.073 21.534 C 28.073 22.26 27.492 22.841 26.767 22.913 C 26.549 22.913 26.404 22.913 26.186 22.913 C 25.896 24.147 25.242 25.163 24.154 25.817 C 24.081 25.889 24.009 25.962 24.009 26.034 C 24.009 26.397 24.009 26.688 24.009 27.05 C 24.081 27.05 24.154 27.123 24.226 27.123 C 26.259 27.704 28.363 28.284 30.396 28.865 C 31.339 29.155 31.847 29.808 31.992 30.752 C 31.992 30.97 31.992 31.188 31.992 31.478 C 33.081 31.405 33.952 31.405 34.896 31.405 Z M 17.331 20.155 C 17.113 19.647 16.896 19.212 16.678 18.776 C 16.025 17.325 16.605 15.655 18.057 15.075 C 18.492 14.929 18.855 14.639 19.146 14.421 C 19.291 14.349 19.436 14.276 19.509 14.131 C 19.581 14.058 19.654 13.986 19.726 13.913 C 20.307 12.607 19.726 11.083 18.492 10.429 C 17.984 10.212 17.476 9.994 16.968 9.776 C 16.242 9.486 15.589 9.413 14.791 9.631 C 14.065 9.776 13.484 10.212 12.904 10.647 C 12.759 10.647 12.613 10.792 12.468 10.792 C 11.234 11.228 10.654 12.389 11.307 13.55 C 11.525 13.986 11.815 14.421 11.96 14.929 C 12.033 15.22 12.033 15.51 12.033 15.8 C 12.033 16.018 11.815 16.163 11.597 16.163 C 11.452 16.163 11.307 16.163 11.089 16.163 C 10.871 16.163 10.654 16.381 10.654 16.599 C 10.654 16.817 10.799 17.034 11.089 17.034 C 11.234 17.034 11.379 17.034 11.452 17.034 C 11.815 17.034 11.96 17.179 12.033 17.542 C 12.25 18.776 12.831 19.647 13.92 20.228 C 14.138 20.373 14.21 20.518 14.21 20.736 C 14.21 21.244 14.21 21.752 14.21 22.188 C 14.21 22.623 14.138 22.696 13.775 22.841 C 12.468 23.494 11.162 24.002 9.855 24.583 C 9.129 24.873 8.839 25.308 8.839 26.034 C 8.839 27.704 8.839 29.446 8.839 31.115 C 8.839 31.188 8.839 31.333 8.839 31.405 C 9.71 31.405 10.581 31.405 11.379 31.405 C 11.379 31.405 11.452 31.405 11.525 31.405 C 11.525 31.26 11.525 31.188 11.525 31.115 C 11.525 29.954 12.178 29.155 13.267 28.792 C 14.646 28.429 16.025 27.994 17.404 27.631 C 18.13 27.413 18.855 27.196 19.581 27.05 C 19.581 26.76 19.581 26.47 19.581 26.107 C 19.581 25.962 19.509 25.817 19.363 25.744 C 18.42 25.091 17.767 24.292 17.476 23.131 C 17.476 23.058 17.404 22.986 17.404 22.913 C 16.097 22.841 15.517 22.405 15.517 21.534 C 15.589 20.736 16.17 20.228 17.331 20.155 Z M 15.154 35.397 C 15.154 34.163 15.154 33.002 15.154 31.841 C 15.444 31.841 15.734 31.841 16.025 31.841 C 16.025 33.002 16.025 34.236 16.025 35.397 C 19.944 35.397 23.791 35.397 27.71 35.397 C 27.71 34.236 27.71 33.002 27.71 31.841 C 28.001 31.841 28.291 31.841 28.581 31.841 C 28.581 33.075 28.581 34.236 28.581 35.397 C 29.452 35.397 30.396 35.397 31.267 35.397 C 31.267 35.325 31.267 35.325 31.267 35.325 C 31.267 33.873 31.267 32.421 31.267 30.897 C 31.267 30.317 30.831 29.808 30.251 29.663 C 28.146 29.083 26.113 28.502 24.009 27.921 C 23.863 27.849 23.718 27.921 23.646 28.067 C 23.21 28.502 22.775 28.938 22.339 29.373 C 21.976 29.736 21.831 29.736 21.396 29.373 C 20.96 28.938 20.525 28.502 20.089 28.067 C 19.944 27.921 19.871 27.921 19.654 27.921 C 17.621 28.502 15.589 29.083 13.484 29.663 C 12.686 29.881 12.396 30.317 12.396 31.115 C 12.396 32.494 12.396 33.8 12.396 35.179 C 12.396 35.252 12.396 35.325 12.396 35.47 C 13.339 35.397 14.21 35.397 15.154 35.397 Z M 24.88 19.067 C 22.847 20.518 20.888 20.518 18.928 19.067 C 18.492 19.72 18.202 20.446 18.275 21.244 C 18.275 21.534 18.275 21.752 18.275 22.042 C 18.275 23.857 19.654 25.308 21.468 25.526 C 23.138 25.744 24.88 24.583 25.242 22.841 C 25.388 22.042 25.315 21.099 25.388 20.3 C 25.388 20.228 25.388 20.228 25.315 20.155 C 25.242 19.865 25.025 19.502 24.88 19.067 Z M 21.033 16.817 C 20.089 15.438 18.638 15.51 17.984 16.091 C 17.113 16.817 17.041 17.905 17.839 19.139 C 17.984 18.849 18.13 18.558 18.275 18.268 C 18.42 17.905 18.71 17.833 19.001 18.05 C 19.291 18.268 19.509 18.486 19.799 18.631 C 20.742 19.284 21.759 19.429 22.847 19.139 C 23.501 18.921 24.081 18.486 24.589 18.123 C 24.952 17.905 25.17 17.905 25.388 18.341 C 25.533 18.631 25.678 18.849 25.823 19.139 C 26.549 17.76 26.113 16.091 24.734 15.365 C 24.299 15.147 23.863 14.929 23.428 14.784 C 22.775 14.494 22.049 14.349 21.251 14.494 C 20.742 14.567 20.234 14.784 20.017 15.002 C 20.742 15.292 21.323 15.728 21.759 16.454 C 21.541 16.526 21.323 16.671 21.033 16.817 Z M 23.21 26.252 C 22.267 26.542 21.396 26.542 20.525 26.252 C 20.525 26.542 20.525 26.76 20.525 26.905 C 20.525 26.978 20.525 27.123 20.597 27.196 C 21.033 27.631 21.396 28.067 21.904 28.502 C 22.339 28.067 22.775 27.631 23.21 27.196 C 23.283 27.123 23.283 27.05 23.283 27.05 C 23.21 26.833 23.21 26.542 23.21 26.252 Z M 17.404 21.97 C 17.404 21.679 17.404 21.389 17.404 21.099 C 16.823 21.026 16.533 21.171 16.533 21.534 C 16.46 21.897 16.751 22.042 17.404 21.97 Z M 26.404 21.099 C 26.404 21.389 26.404 21.679 26.404 21.97 C 27.057 21.97 27.275 21.897 27.275 21.534 C 27.275 21.171 26.984 21.026 26.404 21.099 Z" fill="#1890FF"/>
</svg>