<?xml version="1.0" encoding="utf-8"?>
<svg width="45" height="46" viewBox="0 0 45 46" fill="none" xmlns="http://www.w3.org/2000/svg">
  <circle cx="22.5" cy="23" r="22.5" fill="#13AEDF" fill-opacity="0.2"/>
  <path d="M 27.428 26.23 L 18.943 26.23 L 18.943 23.806 L 27.428 23.806 L 27.428 26.23 Z M 31.064 21.382 L 18.943 21.382 L 18.943 18.958 L 31.064 18.958 L 31.064 21.382 Z M 31.064 16.533 L 18.943 16.533 L 18.943 14.109 L 31.064 14.109 L 31.064 16.533 Z M 11.67 14.109 L 11.67 33.503 L 31.064 33.503 L 31.064 35.927 L 11.67 35.927 C 11.027 35.927 10.41 35.672 9.956 35.217 C 9.501 34.763 9.246 34.146 9.246 33.503 L 9.246 14.109 L 11.67 14.109 Z M 33.488 9.261 C 34.131 9.261 34.748 9.516 35.202 9.971 C 35.657 10.425 35.912 11.042 35.912 11.685 L 35.912 28.655 C 35.912 30 34.834 31.079 33.488 31.079 L 16.518 31.079 C 15.876 31.079 15.259 30.824 14.804 30.369 C 14.35 29.914 14.094 29.298 14.094 28.655 L 14.094 11.685 C 14.094 10.34 15.173 9.261 16.518 9.261 L 33.488 9.261 Z M 16.518 11.685 L 16.518 28.655 L 33.488 28.655 L 33.488 11.685 L 16.518 11.685 Z" fill="#13AEDF"/>
</svg>