<?xml version="1.0" encoding="utf-8"?>
<svg width="45" height="46" viewBox="0 0 45 46" fill="none" xmlns="http://www.w3.org/2000/svg">
  <circle opacity="0.2" cx="22.5" cy="23" r="22.5" fill="#F4AA3A"/>
  <path d="M 10.712 25.895 C 9.912 25.495 9.179 25.095 8.446 24.762 C 8.112 24.628 7.912 24.362 7.979 23.962 C 7.979 23.428 7.979 22.962 7.979 22.428 C 7.979 22.162 8.112 21.962 8.379 21.828 C 9.046 21.495 9.712 21.162 10.379 20.828 C 10.446 20.762 10.579 20.762 10.712 20.628 C 10.579 20.628 10.446 20.562 10.379 20.562 C 9.712 20.228 9.046 19.895 8.379 19.562 C 8.179 19.495 8.046 19.362 8.046 19.095 C 8.046 18.828 8.179 18.695 8.379 18.628 C 13.046 16.295 17.646 13.962 22.312 11.628 C 22.579 11.495 22.779 11.562 23.046 11.695 C 27.379 13.895 31.712 16.028 36.112 18.228 C 36.379 18.362 36.646 18.495 36.912 18.628 C 37.046 18.695 37.179 18.895 37.246 19.095 C 37.312 19.295 37.112 19.495 36.912 19.562 C 36.246 19.895 35.579 20.228 34.912 20.562 C 34.846 20.628 34.712 20.628 34.579 20.762 C 34.712 20.828 34.779 20.895 34.846 20.962 C 35.512 21.295 36.179 21.628 36.846 21.962 C 37.112 22.095 37.246 22.295 37.246 22.562 C 37.246 23.095 37.246 23.628 37.246 24.162 C 37.246 24.495 37.112 24.628 36.846 24.762 C 36.112 25.095 35.312 25.495 34.579 25.895 C 34.712 25.962 34.779 26.028 34.846 26.028 C 35.512 26.362 36.179 26.695 36.846 27.028 C 37.046 27.162 37.312 27.228 37.312 27.562 C 37.312 27.828 37.112 27.962 36.912 28.095 C 32.912 30.095 28.912 32.095 24.912 34.095 C 24.312 34.428 23.712 34.695 23.112 35.028 C 22.912 35.162 22.712 35.162 22.512 35.028 C 17.846 32.695 13.246 30.362 8.579 28.028 C 8.379 27.962 8.179 27.762 8.246 27.562 C 8.312 27.428 8.446 27.228 8.579 27.095 C 9.112 26.695 9.846 26.295 10.712 25.895 Z M 9.579 19.028 C 9.712 19.095 9.779 19.162 9.846 19.162 C 14.046 21.228 18.179 23.362 22.379 25.428 C 22.512 25.495 22.646 25.495 22.846 25.428 C 27.046 23.362 31.179 21.228 35.379 19.162 C 35.446 19.095 35.512 19.095 35.646 19.028 C 35.512 18.962 35.446 18.895 35.379 18.895 C 31.179 16.828 26.979 14.695 22.846 12.628 C 22.646 12.562 22.512 12.562 22.379 12.628 C 18.246 14.695 14.046 16.762 9.912 18.895 C 9.779 18.962 9.646 18.962 9.579 19.028 Z M 9.512 22.362 C 9.646 22.428 9.712 22.495 9.779 22.495 C 13.979 24.562 18.179 26.695 22.379 28.762 C 22.512 28.828 22.646 28.828 22.779 28.762 C 26.979 26.695 31.179 24.562 35.379 22.495 C 35.446 22.428 35.512 22.428 35.646 22.362 C 34.979 22.028 34.312 21.695 33.712 21.362 C 33.512 21.228 33.379 21.295 33.179 21.362 C 29.846 23.028 26.579 24.695 23.246 26.362 C 22.779 26.628 22.446 26.562 21.979 26.362 C 18.646 24.695 15.379 23.028 12.046 21.362 C 11.912 21.295 11.779 21.228 11.712 21.295 C 10.979 21.628 10.312 21.962 9.512 22.362 Z M 35.646 27.495 C 34.979 27.162 34.312 26.828 33.712 26.562 C 33.446 26.428 33.312 26.428 33.046 26.562 C 29.712 28.228 26.312 29.895 22.979 31.628 C 22.712 31.762 22.446 31.762 22.112 31.628 C 18.712 29.895 15.312 28.228 11.912 26.495 C 11.779 26.428 11.646 26.428 11.512 26.495 C 11.046 26.762 10.579 26.962 10.112 27.162 C 9.912 27.228 9.712 27.362 9.512 27.495 C 9.646 27.562 9.712 27.628 9.779 27.628 C 13.979 29.695 18.112 31.828 22.312 33.895 C 22.512 33.962 22.579 33.962 22.779 33.895 C 25.379 32.562 28.046 31.295 30.646 29.962 C 32.312 29.162 33.912 28.362 35.646 27.495 Z M 22.112 30.495 C 22.112 30.362 22.112 30.228 22.112 30.162 C 22.179 29.762 22.046 29.628 21.712 29.428 C 17.512 27.428 13.379 25.362 9.246 23.295 C 9.179 23.228 9.046 23.228 8.912 23.162 C 8.912 23.362 8.912 23.495 8.912 23.628 C 8.912 23.828 8.979 23.962 9.246 24.095 C 12.979 25.962 16.646 27.828 20.379 29.628 C 20.979 29.962 21.512 30.228 22.112 30.495 Z M 23.046 30.495 C 23.179 30.428 23.246 30.428 23.312 30.362 C 25.312 29.362 27.379 28.362 29.379 27.362 C 31.579 26.295 33.779 25.162 35.912 24.095 C 35.979 24.028 36.112 23.962 36.112 23.895 C 36.112 23.695 36.112 23.428 36.112 23.162 C 35.979 23.228 35.912 23.295 35.779 23.295 C 31.712 25.362 27.579 27.362 23.512 29.428 C 22.912 29.762 22.912 29.762 22.912 30.428 C 23.046 30.428 23.046 30.428 23.046 30.495 Z" fill="#F4AA3A"/>
</svg>